<svg id="Group_12" data-name="Group 12" xmlns="http://www.w3.org/2000/svg" width="106" height="77" viewBox="0 0 106 77">
  <g id="Group_11" data-name="Group 11" transform="translate(35)">
    <path id="Path" d="M15.591,0l1.754,3.028L8.975,17.476l0,0L3.5,26.911H0L7.8,13.456Z" transform="translate(0 0)" fill="#fff"/>
    <path id="Path-2" data-name="Path" d="M15.591,0l1.755,3.031L8.98,17.473l0,0L3.508,26.911H0L7.8,13.455Z" transform="translate(2.907 5.017)" fill="#fff"/>
    <path id="Path-3" data-name="Path" d="M15.591,0l7.8,13.456,7.8,13.455H0L7.8,13.456Z" transform="translate(5.819 10.031)" fill="#fff"/>
  </g>
  <path id="Shape" d="M96.268,17.2l1.745-1.787L99.767,17.2,98.013,19Zm-3.74,0,1.745-1.787L96.027,17.2,94.273,19Zm8.437-.21,1.858-1.91,1.865,1.91-1.865,1.9Zm-13.627-2.5a7.416,7.416,0,0,1-1.12-.455c-.337-.172-.619-.327-.854-.471-.1-.053-.181-.1-.254-.147a2.451,2.451,0,0,1-1.029.772,3.219,3.219,0,0,1-1.293.291h-.374v-.009H75.74a6.64,6.64,0,0,1-1.541-.158,5.024,5.024,0,0,1-1.1-.392,3.823,3.823,0,0,1-.723-.47,3.189,3.189,0,0,1-.411-.408,3.988,3.988,0,0,1-1.243.476,6.684,6.684,0,0,1-1.3.121,4.034,4.034,0,0,1-1.526-.305,3.309,3.309,0,0,1-1.325-1.019A4.508,4.508,0,0,1,65.75,10.4a4.852,4.852,0,0,1-.1-.97,4.4,4.4,0,0,1,.184-1.242,3.783,3.783,0,0,1,.623-1.212,4.415,4.415,0,0,1,1.187-1.059,7.274,7.274,0,0,1,1.866-.806l-.1-.467L72.6,3.9c.273,1.188.485,2.142.646,2.867.038.173.07.335.1.488.1.484.2.922.286,1.31s.2.842.328,1.359a1.12,1.12,0,0,0,.193.449.892.892,0,0,0,.489.273,4.617,4.617,0,0,0,1.1.1h.471v.005h6.2v-.005h.24a1.34,1.34,0,0,0,1.021-.279A3.093,3.093,0,0,0,84.113,9.4c.041-.132.087-.279.135-.443a3.771,3.771,0,0,1,.216-.554,4.8,4.8,0,0,1,.441-.755,4.5,4.5,0,0,1,.7-.772,3.5,3.5,0,0,1,2.356-.85,3.445,3.445,0,0,1,1.45.29,3.622,3.622,0,0,1,1.091.76A4.346,4.346,0,0,1,91.253,8.1a4.981,4.981,0,0,1,.43,1.1,3.948,3.948,0,0,1,.14.97.526.526,0,0,0,.177.446.676.676,0,0,0,.4.135h2.551a.977.977,0,0,0,.509-.088.353.353,0,0,0,.119-.305v-2.2h3.27v2.2a.427.427,0,0,0,.087.3.651.651,0,0,0,.438.1H102.2a.718.718,0,0,0,.4-.078.28.28,0,0,0,.105-.243,1.618,1.618,0,0,0-.031-.283c-.267-1.417-.4-2.122-.4-2.122l3.157-.979s.048.248.138.745.194,1.077.31,1.736A6.336,6.336,0,0,1,106,10.695a4.424,4.424,0,0,1-.032.533,5.616,5.616,0,0,1-.234,1.032,2.834,2.834,0,0,1-.45.887,3.353,3.353,0,0,1-1.476,1.1,5.234,5.234,0,0,1-1.6.218H99.446a3.859,3.859,0,0,1-1.173-.179,4.317,4.317,0,0,1-1.044-.489,2.675,2.675,0,0,1-1.032.521,6.016,6.016,0,0,1-1.473.147H92.452v.018h-.246a1.512,1.512,0,0,1-.7-.2,3.366,3.366,0,0,1-.719-.512,3.044,3.044,0,0,1-1.023.691,2.658,2.658,0,0,1-.9.212c-.068.006-.143.009-.222.009A4.347,4.347,0,0,1,87.338,14.493Zm-49.883,0a7.455,7.455,0,0,1-1.12-.455c-.336-.172-.619-.327-.853-.471-.1-.053-.181-.1-.255-.147a2.451,2.451,0,0,1-1.029.772,3.218,3.218,0,0,1-1.292.291h-.374v-.009H26.345v.009h-.711a4.109,4.109,0,0,1-1.23-.165,3.567,3.567,0,0,1-.906-.408,3.676,3.676,0,0,1-.614-.491,3.282,3.282,0,0,1-.482-.628,3.839,3.839,0,0,1-.4-.925,4.337,4.337,0,0,1-.164-1.263V8.392q0-1.54,0-3.1c0-1.045,0-1.855,0-2.439V2.32h3.263v7.9a.441.441,0,0,0,.184.4.606.606,0,0,0,.325.121h.728v.005h6.187v-.005h.239a1.338,1.338,0,0,0,1.021-.279A3.09,3.09,0,0,0,34.231,9.4c.04-.132.087-.279.134-.443a3.877,3.877,0,0,1,.216-.554,4.81,4.81,0,0,1,.442-.755,4.49,4.49,0,0,1,.7-.772,3.5,3.5,0,0,1,2.357-.85,3.451,3.451,0,0,1,1.45.29,3.634,3.634,0,0,1,1.091.76A4.368,4.368,0,0,1,41.369,8.1a4.981,4.981,0,0,1,.43,1.1,3.948,3.948,0,0,1,.14.97.524.524,0,0,0,.178.446.672.672,0,0,0,.4.135h.884a1.112,1.112,0,0,0,.728-.186.645.645,0,0,0,.211-.517V8.148h3.272v1.936a.792.792,0,0,0,.146.5.491.491,0,0,0,.4.2q.622,0,.615-.7V8.148h3.26v1.936a.715.715,0,0,0,.175.5.552.552,0,0,0,.43.2.652.652,0,0,0,.5-.184.54.54,0,0,0,.172-.354V10.2c-.049-.287-.105-.614-.169-.974s-.12-.673-.169-.945-.076-.407-.076-.407l3.2-.68s.022.114.07.342.1.493.155.811.111.623.158.922a6.848,6.848,0,0,1,.087.695c.012.12.017.239.017.359a5.252,5.252,0,0,1-.143,1.239,5.057,5.057,0,0,1-.36,1.018,2.963,2.963,0,0,1-.438.682,3.846,3.846,0,0,1-2.8,1.215,4.523,4.523,0,0,1-1.455-.207,3.917,3.917,0,0,1-1.018-.5,4.407,4.407,0,0,1-1,.522,3.209,3.209,0,0,1-1.118.188,3.906,3.906,0,0,1-1.383-.207,4.126,4.126,0,0,1-.935-.5,1.9,1.9,0,0,1-.625.477,3.007,3.007,0,0,1-1.018.192q-.586.038-1.731.041v.01h-.245a1.077,1.077,0,0,1-.142-.009H42.17v0a1.62,1.62,0,0,1-.549-.186,3.322,3.322,0,0,1-.719-.512,3.044,3.044,0,0,1-1.023.691,2.662,2.662,0,0,1-.9.212c-.067.006-.143.009-.221.009A4.348,4.348,0,0,1,37.454,14.493Zm-23.809.194v-3.73h.781a2.413,2.413,0,0,0,1.883-.595,2.073,2.073,0,0,0,.41-.964,6.023,6.023,0,0,0,.1-1.045V3.969h3.272V8.354a9.785,9.785,0,0,1-.346,2.6,4.923,4.923,0,0,1-.988,2,4.556,4.556,0,0,1-1.888,1.323,6.728,6.728,0,0,1-2.442.416ZM0,14.687l.026-3.706H8.019a2.683,2.683,0,0,0,.994-.143,1.124,1.124,0,0,0,.486-.328.6.6,0,0,0,.14-.345C9.6,10.156,9.4,10.1,9.045,10L7.817,9.668c-.462-.126-.868-.237-1.225-.336l-.535-.147-.08-.323c-.051-.215-.107-.5-.163-.856a7.7,7.7,0,0,1-.085-1.171,6.9,6.9,0,0,1,.153-1.407,4.46,4.46,0,0,1,.293-.837,5.921,5.921,0,0,1,.608-1.049,5.2,5.2,0,0,1,1-1.023,5.259,5.259,0,0,1,1.453-.784A5.759,5.759,0,0,1,11.2,1.43a4.927,4.927,0,0,1,.854.078c.286.051.575.12.868.2L12.1,4.942a3.1,3.1,0,0,0-1.135-.213,2.344,2.344,0,0,0-.912.184,1.824,1.824,0,0,0-.769.622,2.84,2.84,0,0,0-.472,1.18l1.3.358q.94.243,1.473.422a1.664,1.664,0,0,1,.957.728,2.336,2.336,0,0,1,.289,1.191v.032a7.482,7.482,0,0,1-.338,2.3,4.357,4.357,0,0,1-.854,1.517,3.868,3.868,0,0,1-1.17.9,4.757,4.757,0,0,1-1.283.418A7.15,7.15,0,0,1,8,14.687Zm58.152-.212V3.52h3.269V14.475ZM55.57,2.58a5.682,5.682,0,0,1,.374-1.021,2.7,2.7,0,0,1,.694-.89A3.5,3.5,0,0,1,59,0H63.12V2.344H59a1.508,1.508,0,0,0-.719.135.841.841,0,0,0-.35.329,1.5,1.5,0,0,0-.158.41Z" transform="translate(0 48)" fill="#fff"/>
  <path id="Shape-2" data-name="Shape" d="M95.171,6.76a3.532,3.532,0,0,1-1.132-.7,3.35,3.35,0,0,1-.728-1.1,3.817,3.817,0,0,1-.263-1.435,3.44,3.44,0,0,1,.263-1.364,3.125,3.125,0,0,1,.738-1.123A3.465,3.465,0,0,1,95.221.281,4.022,4.022,0,0,1,96.778,0a4.171,4.171,0,0,1,1.446.241A3.518,3.518,0,0,1,99.4.923l-.839,1.093a2.214,2.214,0,0,0-.819-.471,2.739,2.739,0,0,0-1.021-.171,2.55,2.55,0,0,0-.9.15,2.078,2.078,0,0,0-.679.442,2.022,2.022,0,0,0-.435.681,2.333,2.333,0,0,0-.151.852,2.4,2.4,0,0,0,.151.873,1.923,1.923,0,0,0,.446.661,2.094,2.094,0,0,0,.678.442,2.443,2.443,0,0,0,.869.15,3.247,3.247,0,0,0,1.082-.191,2.99,2.99,0,0,0,.89-.572l.86,1.053A4.087,4.087,0,0,1,96.617,7,4.175,4.175,0,0,1,95.171,6.76Zm-30.639.02a2.449,2.449,0,0,1-.97-.622,2.64,2.64,0,0,1-.587-.973,3.958,3.958,0,0,1-.2-1.283V.14H64.3v3.74a1.982,1.982,0,0,0,.4,1.294,1.39,1.39,0,0,0,1.142.472,1.42,1.42,0,0,0,1.153-.452A1.921,1.921,0,0,0,67.374,3.9V.14H68.9V3.871a3.705,3.705,0,0,1-.2,1.284,2.473,2.473,0,0,1-.586.983,2.768,2.768,0,0,1-.951.642A3.849,3.849,0,0,1,65.837,7,3.491,3.491,0,0,1,64.532,6.78Zm-7.5.05a4.226,4.226,0,0,1-1.345-.6l.637-1.234a4.3,4.3,0,0,0,1.132.5,4.642,4.642,0,0,0,1.193.15,2.016,2.016,0,0,0,1-.2.611.611,0,0,0,.324-.542.546.546,0,0,0-.222-.462,1.707,1.707,0,0,0-.739-.239L57.97,4.072a2.869,2.869,0,0,1-1.537-.611,1.757,1.757,0,0,1-.545-1.394,1.769,1.769,0,0,1,.2-.882,1.7,1.7,0,0,1,.545-.653,2.471,2.471,0,0,1,.85-.391A3.934,3.934,0,0,1,58.6,0,5.115,5.115,0,0,1,60.1.212a3.374,3.374,0,0,1,1.2.641l-.749,1.074a3.1,3.1,0,0,0-.9-.441,3.569,3.569,0,0,0-1.031-.15,2.006,2.006,0,0,0-.951.17A.546.546,0,0,0,57.394,2a.48.48,0,0,0,.212.431,1.526,1.526,0,0,0,.677.211l.991.13a2.9,2.9,0,0,1,1.669.682,1.8,1.8,0,0,1,.546,1.373,2.007,2.007,0,0,1-.192.893,1.837,1.837,0,0,1-.556.682,2.5,2.5,0,0,1-.931.441A4.336,4.336,0,0,1,58.557,7,6.555,6.555,0,0,1,57.029,6.83Zm-47.586,0a4.235,4.235,0,0,1-1.345-.6l.637-1.234a4.31,4.31,0,0,0,1.133.5,4.642,4.642,0,0,0,1.193.15,2.012,2.012,0,0,0,1-.2.611.611,0,0,0,.324-.542.546.546,0,0,0-.222-.462,1.706,1.706,0,0,0-.738-.239l-1.041-.131a2.866,2.866,0,0,1-1.537-.611A1.757,1.757,0,0,1,8.3,2.066a1.769,1.769,0,0,1,.2-.882A1.7,1.7,0,0,1,9.05.532,2.466,2.466,0,0,1,9.9.14,3.945,3.945,0,0,1,11.012,0a5.113,5.113,0,0,1,1.507.212,3.366,3.366,0,0,1,1.2.641l-.748,1.074a3.109,3.109,0,0,0-.9-.441,3.57,3.57,0,0,0-1.031-.15,2,2,0,0,0-.95.17A.545.545,0,0,0,9.808,2a.482.482,0,0,0,.212.431,1.53,1.53,0,0,0,.678.211l.991.13a2.9,2.9,0,0,1,1.668.682A1.8,1.8,0,0,1,13.9,4.824a2,2,0,0,1-.192.893,1.828,1.828,0,0,1-.556.682,2.5,2.5,0,0,1-.931.441A4.336,4.336,0,0,1,10.971,7,6.555,6.555,0,0,1,9.444,6.83Zm91.319.03V.14h5.065V1.495h-3.569V2.758h3.186V4.072h-3.186V5.506H106V6.86Zm-10.507,0L87.132,2.568V6.86H85.656V.14h1.365l3.286,4.533V.14h1.466V6.86Zm-7.452,0-.516-1.333h-2.9L78.881,6.86H77.233L80.014.14h1.668l2.8,6.719Zm-8.191,0L73.37,4.854H72V6.86H70.488V.14h3.065A3.3,3.3,0,0,1,74.624.3a2.635,2.635,0,0,1,.84.462A2.256,2.256,0,0,1,76,1.485a2.171,2.171,0,0,1,.193.942,2.112,2.112,0,0,1-.364,1.224,2.28,2.28,0,0,1-1.022.8L76.454,6.86Zm-21.7,0L49.79,2.568V6.86H48.314V.14h1.364l3.287,4.533V.14H54.43V6.86Zm-7.716,0V.14h1.527V6.86Zm-6.188,0V.14h1.527V6.86Zm-3.024,0L34.744,4.854H33.378V6.86H31.862V.14h3.064A3.309,3.309,0,0,1,36,.3a2.635,2.635,0,0,1,.84.462,2.256,2.256,0,0,1,.535.723,2.184,2.184,0,0,1,.193.942A2.106,2.106,0,0,1,37.2,3.651a2.27,2.27,0,0,1-1.021.8L37.828,6.86Zm-6.976,0-.516-1.333h-2.9L25.087,6.86H23.439L26.22.14h1.668l2.8,6.719Zm-8.241,0V2.427h-.091L19.111,4.984h-.789L16.754,2.427h-.091V6.86H15.188V.14h1.659l1.9,3.049L20.627.14h1.629V6.86Zm-15.2,0L5.055,5.527h-2.9L1.648,6.86H0L2.781.14H4.449L7.25,6.86Z" transform="translate(0 70)" fill="#fff"/>
</svg>
